PathFileType	4	(X/Y/Z)	E:\Qualisys_Data\Carbon_Farble_Plate\Data\Amateur_Runner\S14\T2\S14T2V12_c3d.trc
DataRate	CameraRate	NumFrames	NumMarkers	Units	OrigDataRate	OrigDataStartFrame	OrigNumFrames
200.000000	200.000000	5	39	mm	200.000000	243	325
Frame#	Time	LSHO			RSHO			LICST			RICST			LASIS			LHEEL			RASIS			LTROC			RTROC			SACR			LTH1			LSK4			LTH2			LTH3			RHM5			LSK2			LTH4			RTH1			LTOE			RTH2			RTH3			RTH4			LLEP			RLEP			LSK1			LSK3			RSK1			LHM5			RSK2			LFT1			RSK3			RSK4			LLME			RLME			RTOE			RHEEL			RFT1			RFT2			LFT2			
		X1	Y1	Z1	X2	Y2	Z2	X3	Y3	Z3	X4	Y4	Z4	X5	Y5	Z5	X6	Y6	Z6	X7	Y7	Z7	X8	Y8	Z8	X9	Y9	Z9	X10	Y10	Z10	X11	Y11	Z11	X12	Y12	Z12	X13	Y13	Z13	X14	Y14	Z14	X15	Y15	Z15	X16	Y16	Z16	X17	Y17	Z17	X18	Y18	Z18	X19	Y19	Z19	X20	Y20	Z20	X21	Y21	Z21	X22	Y22	Z22	X23	Y23	Z23	X24	Y24	Z24	X25	Y25	Z25	X26	Y26	Z26	X27	Y27	Z27	X28	Y28	Z28	X29	Y29	Z29	X30	Y30	Z30	X31	Y31	Z31	X32	Y32	Z32	X33	Y33	Z33	X34	Y34	Z34	X35	Y35	Z35	X36	Y36	Z36	X37	Y37	Z37	X38	Y38	Z38	X39	Y39	Z39	

244	1.215	1122.062133789062	1451.554565429688	-535.7445678710938	1240.180053710938	1450.97119140625	-267.6748657226562	1150.091064453125	994.3101196289062	-504.6723327636719	1205.28857421875	1006.22216796875	-236.7928924560547	1197.13671875	945.9191284179688	-484.1919555664062	1281.115844726562	70.87550354003906	-381.3934936523438	1226.2392578125	960.8511962890624	-255.6950073242188	1076.75048828125	868.9376220703125	-516.5538940429688	1076.757080078125	895.1124877929688	-179.9876708984375	1028.313232421875	997.198974609375	-370.060791015625	1215.065551757812	660.2420043945312	-528.925537109375	1241.772705078125	290.9500122070312	-465.8561706542969	1152.854370117188	636.1576538085938	-489.1834411621094	1267.79296875	579.0652465820312	-502.0064392089844	648.57373046875	180.3563690185547	-201.4980010986328	1228.233154296875	388.0834350585938	-482.9954833984375	1198.29833984375	551.001220703125	-473.3583068847656	1139.556274414062	654.119384765625	-200.5740203857422	1518.363525390625	145.9577789306641	-464.532470703125	1067.195434570312	676.9899291992188	-183.943115234375	1109.60205078125	559.6718139648438	-222.8096008300781	1031.668090820312	583.5366821289062	-202.3050079345703	1258.012451171875	498.0113525390625	-490.0748291015625	1024.849731445312	509.7780151367188	-207.4632110595703	1309.179565429688	398.4330749511719	-492.8752746582031	1321.698974609375	298.3600769042969	-479.9101257324219	936.1484985351562	424.0750732421875	-204.8262329101562	1451.191162109375	97.58665466308594	-508.733154296875	887.5034790039062	495.0860900878906	-207.6802062988281	1307.623168945312	51.80221939086914	-362.0546569824219	847.7959594726562	370.8064575195312	-216.9162750244141	809.2401123046875	439.7489929199219	-220.8161773681641	1316.002563476562	116.2993698120117	-455.4827575683594	679.870361328125	318.1490173339844	-236.7622528076172	688.2451782226562	103.6013336181641	-250.2828826904297	649.5296020507812	356.9863586425781	-300.0768737792969	627.1248168945312	332.0727233886719	-329.2221374511719	618.8956298828125	351.6222839355469	-276.843994140625	1291.21044921875	39.89908218383789	-413.1749572753906
245	1.22	1137.645385742188	1447.1240234375	-537.5225830078125	1254.979370117188	1446.954956054688	-268.8065185546875	1165.162841796875	990.2669067382812	-505.1356506347656	1219.929931640625	1002.331604003906	-237.4499206542969	1212.451049804688	942.4920043945312	-484.5098266601562	1292.727783203125	67.48123168945312	-380.8279724121094	1240.986450195312	957.1303100585938	-256.2294921875	1091.841918945312	865.0806274414062	-516.5831909179688	1092.268310546875	890.1499633789062	-180.3343811035156	1043.31787109375	993.2392578125	-369.6477661132812	1230.552978515625	657.0220947265625	-528.0795288085938	1255.453735351562	287.20703125	-465.6740112304688	1168.520263671875	632.3612670898438	-488.9656982421875	1283.48779296875	575.5974731445312	-501.4143981933594	661.9700927734375	183.6042175292969	-202.5773315429688	1242.581665039062	384.3669738769531	-482.8554382324219	1213.502807617188	547.4647216796875	-473.328369140625	1157.59423828125	649.8223266601562	-201.1799774169922	1530.673461914062	141.5208740234375	-462.9717102050781	1084.981201171875	672.10107421875	-184.3451080322266	1128.883056640625	555.4778442382812	-221.8413848876953	1050.164916992188	578.2005615234375	-202.7022552490234	1272.8681640625	493.6842956542969	-490.3189697265625	1044.183471679688	504.4488525390625	-207.5356140136719	1323.388916015625	394.1807556152344	-493.040771484375	1334.780395507812	293.8885498046875	-479.7035827636719	954.7965698242188	420.2676086425781	-204.8765869140625	1463.53759765625	93.11996459960938	-507.7917785644531	907.3494873046876	492.3999938964844	-208.0624542236328	1319.689208984375	48.10523986816406	-361.3819274902344	864.9854125976562	368.7950134277344	-217.583740234375	827.6771850585938	438.55419921875	-221.5949554443359	1328.896728515625	111.7457427978516	-454.049560546875	695.8339233398438	320.2902221679688	-237.8411407470703	700.228271484375	105.7511596679688	-251.5214233398438	666.7630615234375	359.6547241210938	-301.3558349609375	643.9318237304688	335.27099609375	-330.4939575195312	635.98828125	355.4783020019531	-278.151611328125	1302.78125	36.44903564453125	-412.6683349609375
246	1.225	1153.682983398438	1442.282104492188	-539.1203002929688	1269.777221679688	1443.15087890625	-269.7387084960938	1179.919677734375	986.4143676757812	-505.7364501953125	1234.684814453125	998.603759765625	-237.5361328125	1227.247436523438	938.875	-485.0898742675781	1303.27880859375	66.12162780761719	-380.6982727050781	1256.144775390625	953.7234497070312	-256.5256652832031	1106.502563476562	861.2396850585938	-516.6901245117188	1107.6796875	885.155517578125	-180.6044616699219	1058.56103515625	989.1047973632812	-369.6805419921875	1246.921997070312	653.6228637695312	-526.9077758789062	1268.568725585938	283.0695495605469	-465.559814453125	1183.922119140625	629.06298828125	-489.6763000488281	1298.868530273438	572.01171875	-500.7544250488281	676.509033203125	186.7754058837891	-203.7185211181641	1256.612670898438	380.2165222167969	-482.8778076171875	1228.784423828125	543.509521484375	-473.7553405761719	1175.430786132812	645.3090209960938	-201.6273040771484	1543.345458984375	134.6609497070312	-460.4983215332031	1102.810424804688	666.5775756835938	-184.3679504394531	1148.211181640625	550.3202514648438	-222.3151092529297	1068.892578125	572.7603149414062	-202.7477569580078	1287.448852539062	489.7911682128906	-490.5318298339844	1064.181762695312	498.788330078125	-207.6173248291016	1337.58935546875	389.5382385253906	-492.9920959472656	1348.561157226562	289.2296142578125	-479.1513061523438	973.3008422851562	416.3255920410156	-205.485107421875	1475.127685546875	87.9260482788086	-506.0136108398438	927.6980590820312	488.992919921875	-208.2942199707031	1328.174926757812	45.41926193237305	-361.3129272460938	882.85302734375	366.4381713867188	-218.6796264648438	847.2178955078125	437.2626037597656	-221.8954620361328	1340.626220703125	108.3424224853516	-453.1712036132812	712.891845703125	322.4878540039062	-238.4915924072266	712.8065795898438	108.0633316040039	-252.5188446044922	684.529296875	362.6947937011719	-302.8674621582031	660.8780517578125	338.5502014160156	-331.7835388183594	653.3539428710938	358.6113586425781	-279.4389343261719	1311.564086914062	35.61533355712891	-412.80615234375
247	1.23	1169.518798828125	1437.333984375	-540.7318115234375	1284.247314453125	1438.597534179688	-270.6599426269531	1194.410766601562	982.35791015625	-506.3694458007812	1249.279174804688	994.2822875976562	-237.810791015625	1242.171875	935.1524047851562	-485.9748229980469	1314.134033203125	68.29930877685547	-380.7356872558594	1270.645263671875	949.6893920898438	-256.87841796875	1121.298095703125	857.2130126953125	-516.83447265625	1123.522583007812	879.925537109375	-181.1600952148438	1073.93994140625	984.789306640625	-369.6924133300781	1263.188720703125	650.3762817382812	-526.057861328125	1281.42041015625	279.27685546875	-465.4746704101562	1199.185668945312	625.2473754882812	-490.2538452148438	1314.200927734375	567.9118041992188	-499.9064025878906	691.0188598632812	189.5940093994141	-205.023193359375	1270.538940429688	376.4129333496094	-482.963623046875	1244.150268554688	539.094970703125	-473.8705749511719	1193.885498046875	640.845703125	-201.9609375	1554.777709960938	125.4740219116211	-457.6207885742188	1120.713500976562	661.3365478515625	-184.6898040771484	1167.387573242188	545.1952514648438	-222.7232208251953	1088.226318359375	566.7472534179688	-202.9869079589844	1302.33642578125	485.3717956542969	-490.7859497070312	1084.186157226562	493.2793884277344	-207.1043548583984	1350.632080078125	384.7738952636719	-493.6685180664062	1361.678344726562	284.0791015625	-478.6873779296875	992.287109375	412.1468505859375	-205.4647369384766	1484.503784179688	81.69471740722656	-504.0974731445312	948.2048950195312	485.7437133789062	-208.7482757568359	1335.10986328125	43.858642578125	-361.64208984375	901.0095825195312	364.0960083007812	-219.1472930908203	866.640869140625	435.2076110839844	-222.4581451416016	1351.779418945312	104.3945999145508	-452.5384826660156	730.4967651367188	324.728515625	-239.6235046386719	725.8119506835938	110.3310852050781	-253.6107940673828	702.6629028320312	365.4398803710938	-304.2349243164062	678.7262573242188	341.8488159179688	-333.4987487792969	671.5	361.7126159667969	-280.9056091308594	1318.583862304688	36.80948638916016	-413.645751953125
248	1.235	1185.266235351562	1432.059326171875	-542.4078979492188	1298.79248046875	1434.179931640625	-271.4683227539062	1208.94970703125	978.2355346679688	-507.0429382324219	1263.755249023438	990.0673828125	-238.2975769042969	1256.886352539062	931.301025390625	-486.2823791503906	1321.319213867188	69.93135833740234	-381.4276428222656	1285.947875976562	945.1563110351562	-257.4382019042969	1136.062866210938	852.716796875	-516.7274780273438	1138.948364257812	874.5427856445312	-181.3918304443359	1088.79443359375	980.0725708007812	-369.6651916503906	1279.093139648438	646.5039672851562	-524.749267578125	1294.157836914062	275.0067749023438	-465.3309020996094	1214.514038085938	620.7880859375	-490.6647033691406	1329.943237304688	564.19189453125	-499.6913452148438	706.5601806640625	192.1286468505859	-206.1833648681641	1284.5146484375	372.2764587402344	-482.8901062011719	1259.263061523438	535.17822265625	-474.8155517578125	1212.260864257812	636.1234741210938	-202.4785461425781	1564.098388671875	113.7379379272461	-454.1184387207031	1138.697998046875	655.3863525390625	-184.9035949707031	1187.3193359375	540.1390380859375	-222.7935791015625	1107.611206054688	560.3887939453125	-202.7272644042969	1317.038452148438	481.0762634277344	-490.7374267578125	1104.824462890625	487.372314453125	-206.8076019287109	1365.666625976562	379.8606262207031	-492.7565002441406	1374.229614257812	279.2354125976562	-478.2574768066406	1011.919738769531	407.456787109375	-205.92236328125	1493.132446289062	71.4405517578125	-500.4154357910156	969.0361328125	481.7516784667969	-208.6161041259766	1339.653564453125	43.09955215454102	-362.0724792480469	919.4398803710938	361.2275695800781	-220.3779296875	886.9078369140625	433.5667114257812	-223.1688690185547	1362.082763671875	99.68365478515624	-451.3708190917969	748.1549682617188	326.0520324707031	-240.6956176757812	740.0322265625	112.3055419921875	-254.8992309570312	721.5462646484375	367.6490173339844	-305.5572204589844	696.7776489257812	344.5267944335938	-334.3748779296875	690.2776489257812	364.7065124511719	-282.1526184082031	1323.1611328125	38.96007537841797	-415.2601318359375
